<?xml version="1.0" encoding="UTF-8" standalone="no"?>
<!-- Created with Inkscape (http://www.inkscape.org/) -->

<svg
   width="51.688999mm"
   height="11.797mm"
   viewBox="0 0 51.688999 11.797"
   version="1.1"
   id="svg5"
   inkscape:version="1.2.2 (1:1.2.2+202305151915+b0a8486541)"
   sodipodi:docname="cisticola_logo.svg"
   xmlns:inkscape="http://www.inkscape.org/namespaces/inkscape"
   xmlns:sodipodi="http://sodipodi.sourceforge.net/DTD/sodipodi-0.dtd"
   xmlns="http://www.w3.org/2000/svg"
   xmlns:svg="http://www.w3.org/2000/svg">
  <sodipodi:namedview
     id="namedview7"
     pagecolor="#ffffff"
     bordercolor="#666666"
     borderopacity="1.0"
     inkscape:pageshadow="2"
     inkscape:pageopacity="0.0"
     inkscape:pagecheckerboard="0"
     inkscape:document-units="mm"
     showgrid="false"
     fit-margin-top="0"
     fit-margin-left="0"
     fit-margin-right="0"
     fit-margin-bottom="0"
     inkscape:zoom="2.0838024"
     inkscape:cx="141.56813"
     inkscape:cy="115.65396"
     inkscape:window-width="1920"
     inkscape:window-height="1005"
     inkscape:window-x="0"
     inkscape:window-y="0"
     inkscape:window-maximized="1"
     inkscape:current-layer="layer3"
     inkscape:showpageshadow="2"
     inkscape:deskcolor="#d1d1d1" />
  <defs
     id="defs2" />
  <g
     inkscape:groupmode="layer"
     id="layer3"
     inkscape:label="background"
     transform="translate(-60.255096,9.177412)">
    <rect
       style="fill:#292a2b;fill-opacity:1;stroke-width:0.723711"
       id="rect16437"
       width="51.688999"
       height="11.797"
       x="60.255096"
       y="-9.177412" />
  </g>
  <g
     inkscape:groupmode="layer"
     id="layer4"
     inkscape:label="text"
     transform="translate(-60.255096,9.177412)">
    <path
       id="path15829"
       style="font-size:8.36272px;line-height:1.25;font-family:'Atlas Typewriter';-inkscape-font-specification:'Atlas Typewriter';fill:#ffffff;fill-opacity:1;stroke-width:0.209067"
       d="m 70.0228,-6.6771549 c -0.283099,0 -0.513662,0.2335451 -0.513662,0.5214152 0,0.2884 0.230563,0.5229656 0.513662,0.5229656 0.283371,0 0.51263,-0.2345656 0.51263,-0.5229656 0,-0.2878701 -0.229259,-0.5214152 -0.51263,-0.5214152 z m 16.056385,0 c -0.283099,0 -0.513146,0.2335451 -0.513146,0.5214152 0,0.2884 0.230047,0.5229656 0.513146,0.5229656 0.283371,0 0.51263,-0.2345656 0.51263,-0.5229656 0,-0.2878701 -0.229259,-0.5214152 -0.51263,-0.5214152 z m 14.358295,0.098185 v 0.3762044 h 1.37149 v 5.85390603 h -1.68051 V 0.0108085 h 3.82147 v -0.35966797 h -1.69757 V -6.5789696 Z m -20.312971,0.8862507 v 0.7611938 c 0,0.468312 -0.07489,0.5767091 -0.53485,0.5767091 h -1.104325 v 0.359668 h 1.622639 v 2.8768268 c 0,0.76936995 0.317555,1.22938228 1.346171,1.22938228 0.434861,0 0.777668,-0.07510942 1.011825,-0.15037842 v -0.37672118 c -0.30942,0.10035299 -0.676894,0.1421102 -1.003041,0.1421102 -0.577027,0 -0.911572,-0.23377623 -0.911572,-0.81080318 v -2.9104165 h 1.914613 v -0.359668 h -1.914613 v -1.3379029 z m -10.295495,0.8759155 v 0.2253091 c 0,0.6858022 -0.05795,0.7610827 -0.517798,1.1957929 l -0.263033,0.2511472 c -0.517789,0.4931802 -0.879533,0.8776991 -0.879533,1.7058391 0,0.81174998 0.550259,1.54770912 1.799892,1.54770912 1.109929,0 1.939959,-0.72802084 1.90686,-2.03295082 h -0.402561 c 0.02487,1.04563998 -0.583547,1.66449786 -1.471226,1.66449786 -0.887942,0 -1.39785,-0.44357232 -1.39785,-1.22938226 0,-0.53552 0.189648,-0.9282617 0.608748,-1.2965617 l 0.3452,-0.3095419 c 0.583689,-0.5183198 0.665593,-0.6512787 0.665593,-1.5043007 v -0.2175579 z m 16.056901,0 v 0.2253091 c 0,0.6858022 -0.05795,0.7610827 -0.517798,1.1957929 l -0.263549,0.2511472 c -0.517789,0.4931812 -0.879533,0.8776982 -0.879533,1.7058391 0,0.81174998 0.550259,1.54770912 1.799889,1.54770912 1.10993,0 1.939962,-0.72802185 1.90686,-2.03295082 h -0.402558 c 0.02487,1.04563898 -0.583549,1.66449786 -1.471229,1.66449786 -0.887939,0 -1.397847,-0.44357132 -1.397847,-1.22938226 0,-0.535519 0.189648,-0.9282617 0.608748,-1.2965617 l 0.3452,-0.3095419 c 0.583689,-0.5183198 0.665591,-0.6512798 0.665591,-1.5043007 v -0.2175579 z m -21.132043,0.3451985 c -1.296221,0 -1.998846,1.0201492 -1.998846,2.3414592 0,1.36312292 0.644041,2.24947501 1.956988,2.24947501 0.911535,0 1.580537,-0.45140498 1.739429,-1.38802891 h -0.442867 c -0.108715,0.56866496 -0.443238,1.02009271 -1.279509,1.02009272 -1.036976,0 -1.505334,-0.70234505 -1.505334,-1.93166502 0,-1.237682 0.602205,-1.9151286 1.547191,-1.9151286 0.769371,0 1.170749,0.4431218 1.237652,0.8779827 h 0.442867 c -0.133805,-0.9115361 -0.944927,-1.2541871 -1.697571,-1.2541871 z m 26.76064,0 c -1.296223,0 -1.998329,1.0201492 -1.998329,2.3414592 0,1.36312292 0.643525,2.24947501 1.956472,2.24947501 0.911537,0 1.580536,-0.45140498 1.739429,-1.38802891 h -0.442867 c -0.108718,0.56866496 -0.443238,1.02009271 -1.27951,1.02009272 -1.036978,0 -1.505333,-0.70234505 -1.505333,-1.93166502 0,-1.237682 0.602205,-1.9151286 1.547191,-1.9151286 0.769371,0 1.170749,0.4431218 1.237652,0.8779827 h 0.442867 c -0.133805,-0.9115361 -0.944928,-1.2541871 -1.697572,-1.2541871 z m -16.240352,0.00827 c -1.070428,0 -1.589051,0.5435457 -1.589051,1.2376507 0,0.7610079 0.477065,1.0702129 1.246437,1.1622029 l 0.794265,0.091984 c 0.660657,0.07526 0.877983,0.3177813 0.877983,0.7777303 0,0.63556696 -0.560403,0.96169837 -1.363223,0.96169837 -0.802823,0 -1.237647,-0.29258664 -1.329634,-0.96996657 h -0.426332 c 0.09199,0.99516294 0.836065,1.32136631 1.755966,1.32136631 1.179142,0 1.79007,-0.55190159 1.79007,-1.32963451 0,-0.64393 -0.334708,-1.0452197 -1.262972,-1.1539348 l -0.727605,-0.083716 c -0.602115,-0.0669 -0.928108,-0.2506897 -0.928108,-0.7942667 0,-0.5770279 0.451467,-0.8697145 1.153936,-0.8697145 0.73592,0 1.062085,0.2671824 1.187524,0.7689453 h 0.434599 c -0.125442,-0.7108309 -0.67723,-1.120345 -1.613855,-1.1203448 z m 21.408511,0 c -1.279496,0 -1.956985,0.9282102 -1.956985,2.2913331 0,1.36312292 0.677489,2.29133291 1.956985,2.29133291 1.279496,0 1.956988,-0.92820999 1.956988,-2.29133291 0,-1.3631229 -0.677492,-2.2913331 -1.956988,-2.2913331 z m 10.604009,0.00827 c -0.97844,0.02509 -1.52215,0.5936269 -1.58905,1.245919 h 0.41806 c 0.0669,-0.4766752 0.41824,-0.8779828 1.17925,-0.8779828 1.05371,0 1.17099,0.5686716 1.17099,1.3714926 v 0.1591634 c -1.19587,0.07526 -1.92365,0.1584901 -2.35851,0.4010091 -0.32615,0.192342 -0.58549,0.5104836 -0.58549,1.0206096 0,0.7693709 0.56054,1.212329 1.39681,1.212329 0.72756,0 1.29641,-0.34252917 1.53892,-0.94464519 h 0.0165 c -0.008,0.59375302 0.16707,0.87798259 0.79427,0.87798259 h 0.1757 v -0.35966797 h -0.16692 c -0.2927,0 -0.39325,-0.117143 -0.39325,-0.451652 V -2.7574976 c 0,-0.827909 -0.17565,-1.6975709 -1.59732,-1.6975709 z m -10.604009,0.3513998 c 1.003528,0 1.513605,0.7608842 1.513605,1.9316651 0,1.170781 -0.518441,1.93166494 -1.513605,1.93166494 -1.028615,0 -1.513602,-0.76088394 -1.513602,-1.93166494 0,-1.1707809 0.510075,-1.9316651 1.513602,-1.9316651 z m 11.774989,1.9063436 v 0.2594157 c 0,1.07042796 -0.72746,1.65571285 -1.47174,1.65571285 -0.60212,0 -1.01234,-0.29278114 -1.01234,-0.86144605 0,-0.309421 0.14247,-0.5433907 0.38499,-0.7022827 0.26761,-0.200705 0.83632,-0.2594098 2.09909,-0.3513998 z" />
  </g>
</svg>
